<mxfile host="app.diagrams.net" modified="2021-05-14T07:24:47.473Z" agent="5.0 (Windows NT 10.0; Win64; x64) AppleWebKit/537.36 (KHTML, like Gecko) Chrome/90.0.4430.212 Safari/537.36" etag="qRu8Fa5Ts3mBEPLYmD8z" version="14.6.12" type="github">
  <diagram id="DayRkasAOrRNS60TjSqG" name="Page-1">
    <mxGraphModel dx="1883" dy="844" grid="1" gridSize="10" guides="1" tooltips="1" connect="1" arrows="1" fold="1" page="0" pageScale="1" pageWidth="1200" pageHeight="1920" math="0" shadow="0">
      <root>
        <mxCell id="0" />
        <mxCell id="1" parent="0" />
        <mxCell id="cg3MrvOszi7k7yyoZt42-67" style="edgeStyle=orthogonalEdgeStyle;rounded=0;orthogonalLoop=1;jettySize=auto;html=1;entryX=0;entryY=0.5;entryDx=0;entryDy=0;" edge="1" parent="1" source="cg3MrvOszi7k7yyoZt42-2" target="cg3MrvOszi7k7yyoZt42-17">
          <mxGeometry relative="1" as="geometry" />
        </mxCell>
        <mxCell id="cg3MrvOszi7k7yyoZt42-2" value="" style="shape=cube;whiteSpace=wrap;html=1;boundedLbl=1;backgroundOutline=1;darkOpacity=0.05;darkOpacity2=0.1;direction=south;" vertex="1" parent="1">
          <mxGeometry x="60" y="190" width="80" height="80" as="geometry" />
        </mxCell>
        <mxCell id="cg3MrvOszi7k7yyoZt42-10" value="&lt;b&gt;DBL&lt;/b&gt;" style="rounded=1;whiteSpace=wrap;html=1;" vertex="1" parent="1">
          <mxGeometry x="-280" y="180" width="90" height="50" as="geometry" />
        </mxCell>
        <mxCell id="cg3MrvOszi7k7yyoZt42-69" style="edgeStyle=orthogonalEdgeStyle;rounded=0;orthogonalLoop=1;jettySize=auto;html=1;entryX=0;entryY=0.5;entryDx=0;entryDy=0;" edge="1" parent="1" source="cg3MrvOszi7k7yyoZt42-18" target="cg3MrvOszi7k7yyoZt42-19">
          <mxGeometry relative="1" as="geometry" />
        </mxCell>
        <mxCell id="cg3MrvOszi7k7yyoZt42-18" value="&lt;b&gt;res8&lt;/b&gt;" style="rounded=1;whiteSpace=wrap;html=1;" vertex="1" parent="1">
          <mxGeometry x="435" y="207.5" width="60" height="45" as="geometry" />
        </mxCell>
        <mxCell id="cg3MrvOszi7k7yyoZt42-66" style="edgeStyle=orthogonalEdgeStyle;rounded=0;orthogonalLoop=1;jettySize=auto;html=1;" edge="1" parent="1" source="cg3MrvOszi7k7yyoZt42-19">
          <mxGeometry relative="1" as="geometry">
            <mxPoint x="620" y="230" as="targetPoint" />
          </mxGeometry>
        </mxCell>
        <mxCell id="cg3MrvOszi7k7yyoZt42-19" value="&lt;b&gt;res4&lt;/b&gt;" style="rounded=1;whiteSpace=wrap;html=1;" vertex="1" parent="1">
          <mxGeometry x="520" y="207.5" width="60" height="45" as="geometry" />
        </mxCell>
        <mxCell id="cg3MrvOszi7k7yyoZt42-36" value="" style="group" vertex="1" connectable="0" parent="1">
          <mxGeometry x="630" y="187.5" width="100" height="85" as="geometry" />
        </mxCell>
        <mxCell id="cg3MrvOszi7k7yyoZt42-31" value="&lt;b&gt;DBL&lt;/b&gt;" style="rounded=1;whiteSpace=wrap;html=1;" vertex="1" parent="cg3MrvOszi7k7yyoZt42-36">
          <mxGeometry width="60" height="45" as="geometry" />
        </mxCell>
        <mxCell id="cg3MrvOszi7k7yyoZt42-32" value="&lt;b&gt;DBL&lt;/b&gt;" style="rounded=1;whiteSpace=wrap;html=1;" vertex="1" parent="cg3MrvOszi7k7yyoZt42-36">
          <mxGeometry x="10" y="10" width="60" height="45" as="geometry" />
        </mxCell>
        <mxCell id="cg3MrvOszi7k7yyoZt42-33" value="&lt;b&gt;DBL&lt;/b&gt;" style="rounded=1;whiteSpace=wrap;html=1;" vertex="1" parent="cg3MrvOszi7k7yyoZt42-36">
          <mxGeometry x="20" y="20" width="60" height="45" as="geometry" />
        </mxCell>
        <mxCell id="cg3MrvOszi7k7yyoZt42-34" value="&lt;b&gt;DBL&lt;/b&gt;" style="rounded=1;whiteSpace=wrap;html=1;" vertex="1" parent="cg3MrvOszi7k7yyoZt42-36">
          <mxGeometry x="30" y="30" width="60" height="45" as="geometry" />
        </mxCell>
        <mxCell id="cg3MrvOszi7k7yyoZt42-35" value="&lt;b&gt;DBL&lt;/b&gt;" style="rounded=1;whiteSpace=wrap;html=1;" vertex="1" parent="cg3MrvOszi7k7yyoZt42-36">
          <mxGeometry x="40" y="40" width="60" height="45" as="geometry" />
        </mxCell>
        <mxCell id="cg3MrvOszi7k7yyoZt42-37" value="&lt;b&gt;DBL&lt;/b&gt;" style="rounded=1;whiteSpace=wrap;html=1;" vertex="1" parent="1">
          <mxGeometry x="620" y="300" width="60" height="45" as="geometry" />
        </mxCell>
        <mxCell id="cg3MrvOszi7k7yyoZt42-38" value="" style="group" vertex="1" connectable="0" parent="1">
          <mxGeometry x="170" y="208" width="240" height="45" as="geometry" />
        </mxCell>
        <mxCell id="cg3MrvOszi7k7yyoZt42-13" value="&lt;b&gt;res8&lt;/b&gt;" style="rounded=1;whiteSpace=wrap;html=1;" vertex="1" parent="cg3MrvOszi7k7yyoZt42-38">
          <mxGeometry x="180" y="0.5" width="60" height="45" as="geometry" />
        </mxCell>
        <mxCell id="cg3MrvOszi7k7yyoZt42-15" value="&lt;b&gt;res2&lt;/b&gt;" style="rounded=1;whiteSpace=wrap;html=1;" vertex="1" parent="cg3MrvOszi7k7yyoZt42-38">
          <mxGeometry x="120" y="0.5" width="60" height="45" as="geometry" />
        </mxCell>
        <mxCell id="cg3MrvOszi7k7yyoZt42-16" value="&lt;b&gt;res1&lt;/b&gt;" style="rounded=1;whiteSpace=wrap;html=1;" vertex="1" parent="cg3MrvOszi7k7yyoZt42-38">
          <mxGeometry x="60" y="0.5" width="60" height="45" as="geometry" />
        </mxCell>
        <mxCell id="cg3MrvOszi7k7yyoZt42-17" value="&lt;b&gt;DBL&lt;/b&gt;" style="rounded=1;whiteSpace=wrap;html=1;" vertex="1" parent="cg3MrvOszi7k7yyoZt42-38">
          <mxGeometry width="60" height="45" as="geometry" />
        </mxCell>
        <mxCell id="cg3MrvOszi7k7yyoZt42-74" style="edgeStyle=orthogonalEdgeStyle;rounded=0;orthogonalLoop=1;jettySize=auto;html=1;entryX=0.75;entryY=0;entryDx=0;entryDy=0;" edge="1" parent="1" source="cg3MrvOszi7k7yyoZt42-39" target="cg3MrvOszi7k7yyoZt42-40">
          <mxGeometry relative="1" as="geometry" />
        </mxCell>
        <mxCell id="cg3MrvOszi7k7yyoZt42-39" value="&lt;b&gt;上采样&lt;/b&gt;" style="rounded=1;whiteSpace=wrap;html=1;" vertex="1" parent="1">
          <mxGeometry x="680" y="300" width="60" height="45" as="geometry" />
        </mxCell>
        <mxCell id="cg3MrvOszi7k7yyoZt42-79" style="edgeStyle=orthogonalEdgeStyle;rounded=0;orthogonalLoop=1;jettySize=auto;html=1;" edge="1" parent="1" source="cg3MrvOszi7k7yyoZt42-40">
          <mxGeometry relative="1" as="geometry">
            <mxPoint x="880" y="345" as="targetPoint" />
          </mxGeometry>
        </mxCell>
        <mxCell id="cg3MrvOszi7k7yyoZt42-40" value="&lt;b&gt;concat&lt;/b&gt;" style="verticalLabelPosition=middle;verticalAlign=middle;html=1;shape=trapezoid;perimeter=trapezoidPerimeter;whiteSpace=wrap;size=0.23;arcSize=10;flipV=1;labelPosition=center;align=center;rounded=1;glass=1;gradientColor=none;rotation=-90;" vertex="1" parent="1">
          <mxGeometry x="770" y="310" width="90" height="70" as="geometry" />
        </mxCell>
        <mxCell id="cg3MrvOszi7k7yyoZt42-41" value="" style="group" vertex="1" connectable="0" parent="1">
          <mxGeometry x="890" y="300" width="100" height="85" as="geometry" />
        </mxCell>
        <mxCell id="cg3MrvOszi7k7yyoZt42-42" value="&lt;b&gt;DBL&lt;/b&gt;" style="rounded=1;whiteSpace=wrap;html=1;" vertex="1" parent="cg3MrvOszi7k7yyoZt42-41">
          <mxGeometry width="60" height="45" as="geometry" />
        </mxCell>
        <mxCell id="cg3MrvOszi7k7yyoZt42-43" value="&lt;b&gt;DBL&lt;/b&gt;" style="rounded=1;whiteSpace=wrap;html=1;" vertex="1" parent="cg3MrvOszi7k7yyoZt42-41">
          <mxGeometry x="10" y="10" width="60" height="45" as="geometry" />
        </mxCell>
        <mxCell id="cg3MrvOszi7k7yyoZt42-44" value="&lt;b&gt;DBL&lt;/b&gt;" style="rounded=1;whiteSpace=wrap;html=1;" vertex="1" parent="cg3MrvOszi7k7yyoZt42-41">
          <mxGeometry x="20" y="20" width="60" height="45" as="geometry" />
        </mxCell>
        <mxCell id="cg3MrvOszi7k7yyoZt42-45" value="&lt;b&gt;DBL&lt;/b&gt;" style="rounded=1;whiteSpace=wrap;html=1;" vertex="1" parent="cg3MrvOszi7k7yyoZt42-41">
          <mxGeometry x="30" y="30" width="60" height="45" as="geometry" />
        </mxCell>
        <mxCell id="cg3MrvOszi7k7yyoZt42-46" value="&lt;b&gt;DBL&lt;/b&gt;" style="rounded=1;whiteSpace=wrap;html=1;" vertex="1" parent="cg3MrvOszi7k7yyoZt42-41">
          <mxGeometry x="40" y="40" width="60" height="45" as="geometry" />
        </mxCell>
        <mxCell id="cg3MrvOszi7k7yyoZt42-47" value="&lt;b&gt;DBL&lt;/b&gt;" style="rounded=1;whiteSpace=wrap;html=1;" vertex="1" parent="1">
          <mxGeometry x="1040" y="322.5" width="60" height="45" as="geometry" />
        </mxCell>
        <mxCell id="cg3MrvOszi7k7yyoZt42-80" style="edgeStyle=orthogonalEdgeStyle;rounded=0;orthogonalLoop=1;jettySize=auto;html=1;" edge="1" parent="1" source="cg3MrvOszi7k7yyoZt42-48">
          <mxGeometry relative="1" as="geometry">
            <mxPoint x="1240" y="345" as="targetPoint" />
          </mxGeometry>
        </mxCell>
        <mxCell id="cg3MrvOszi7k7yyoZt42-48" value="&lt;b&gt;CONV&lt;/b&gt;" style="rounded=1;whiteSpace=wrap;html=1;" vertex="1" parent="1">
          <mxGeometry x="1100" y="322.5" width="60" height="45" as="geometry" />
        </mxCell>
        <mxCell id="cg3MrvOszi7k7yyoZt42-49" value="&lt;b&gt;Y2&lt;/b&gt;" style="shape=cube;whiteSpace=wrap;html=1;boundedLbl=1;backgroundOutline=1;darkOpacity=0.05;darkOpacity2=0.1;direction=south;" vertex="1" parent="1">
          <mxGeometry x="1243" y="305" width="80" height="80" as="geometry" />
        </mxCell>
        <mxCell id="cg3MrvOszi7k7yyoZt42-50" value="&lt;b&gt;DBL&lt;/b&gt;" style="rounded=1;whiteSpace=wrap;html=1;" vertex="1" parent="1">
          <mxGeometry x="620" y="436" width="60" height="45" as="geometry" />
        </mxCell>
        <mxCell id="cg3MrvOszi7k7yyoZt42-78" style="edgeStyle=orthogonalEdgeStyle;rounded=0;orthogonalLoop=1;jettySize=auto;html=1;entryX=0.75;entryY=0;entryDx=0;entryDy=0;" edge="1" parent="1" source="cg3MrvOszi7k7yyoZt42-51" target="cg3MrvOszi7k7yyoZt42-52">
          <mxGeometry relative="1" as="geometry" />
        </mxCell>
        <mxCell id="cg3MrvOszi7k7yyoZt42-51" value="&lt;b&gt;上采样&lt;/b&gt;" style="rounded=1;whiteSpace=wrap;html=1;" vertex="1" parent="1">
          <mxGeometry x="680" y="436" width="60" height="45" as="geometry" />
        </mxCell>
        <mxCell id="cg3MrvOszi7k7yyoZt42-83" style="edgeStyle=orthogonalEdgeStyle;rounded=0;orthogonalLoop=1;jettySize=auto;html=1;" edge="1" parent="1" source="cg3MrvOszi7k7yyoZt42-52">
          <mxGeometry relative="1" as="geometry">
            <mxPoint x="880" y="481" as="targetPoint" />
          </mxGeometry>
        </mxCell>
        <mxCell id="cg3MrvOszi7k7yyoZt42-52" value="&lt;b&gt;concat&lt;/b&gt;" style="verticalLabelPosition=middle;verticalAlign=middle;html=1;shape=trapezoid;perimeter=trapezoidPerimeter;whiteSpace=wrap;size=0.23;arcSize=10;flipV=1;labelPosition=center;align=center;rounded=1;glass=1;gradientColor=none;rotation=-90;" vertex="1" parent="1">
          <mxGeometry x="770" y="446" width="90" height="70" as="geometry" />
        </mxCell>
        <mxCell id="cg3MrvOszi7k7yyoZt42-53" value="" style="group" vertex="1" connectable="0" parent="1">
          <mxGeometry x="890" y="436" width="100" height="85" as="geometry" />
        </mxCell>
        <mxCell id="cg3MrvOszi7k7yyoZt42-54" value="&lt;b&gt;DBL&lt;/b&gt;" style="rounded=1;whiteSpace=wrap;html=1;" vertex="1" parent="cg3MrvOszi7k7yyoZt42-53">
          <mxGeometry width="60" height="45" as="geometry" />
        </mxCell>
        <mxCell id="cg3MrvOszi7k7yyoZt42-55" value="&lt;b&gt;DBL&lt;/b&gt;" style="rounded=1;whiteSpace=wrap;html=1;" vertex="1" parent="cg3MrvOszi7k7yyoZt42-53">
          <mxGeometry x="10" y="10" width="60" height="45" as="geometry" />
        </mxCell>
        <mxCell id="cg3MrvOszi7k7yyoZt42-56" value="&lt;b&gt;DBL&lt;/b&gt;" style="rounded=1;whiteSpace=wrap;html=1;" vertex="1" parent="cg3MrvOszi7k7yyoZt42-53">
          <mxGeometry x="20" y="20" width="60" height="45" as="geometry" />
        </mxCell>
        <mxCell id="cg3MrvOszi7k7yyoZt42-57" value="&lt;b&gt;DBL&lt;/b&gt;" style="rounded=1;whiteSpace=wrap;html=1;" vertex="1" parent="cg3MrvOszi7k7yyoZt42-53">
          <mxGeometry x="30" y="30" width="60" height="45" as="geometry" />
        </mxCell>
        <mxCell id="cg3MrvOszi7k7yyoZt42-58" value="&lt;b&gt;DBL&lt;/b&gt;" style="rounded=1;whiteSpace=wrap;html=1;" vertex="1" parent="cg3MrvOszi7k7yyoZt42-53">
          <mxGeometry x="40" y="40" width="60" height="45" as="geometry" />
        </mxCell>
        <mxCell id="cg3MrvOszi7k7yyoZt42-59" value="&lt;b&gt;DBL&lt;/b&gt;" style="rounded=1;whiteSpace=wrap;html=1;" vertex="1" parent="1">
          <mxGeometry x="1040" y="458.5" width="60" height="45" as="geometry" />
        </mxCell>
        <mxCell id="cg3MrvOszi7k7yyoZt42-82" style="edgeStyle=orthogonalEdgeStyle;rounded=0;orthogonalLoop=1;jettySize=auto;html=1;" edge="1" parent="1" source="cg3MrvOszi7k7yyoZt42-60">
          <mxGeometry relative="1" as="geometry">
            <mxPoint x="1240" y="481" as="targetPoint" />
          </mxGeometry>
        </mxCell>
        <mxCell id="cg3MrvOszi7k7yyoZt42-60" value="&lt;b&gt;CONV&lt;/b&gt;" style="rounded=1;whiteSpace=wrap;html=1;" vertex="1" parent="1">
          <mxGeometry x="1100" y="458.5" width="60" height="45" as="geometry" />
        </mxCell>
        <mxCell id="cg3MrvOszi7k7yyoZt42-61" value="&lt;b&gt;DBL&lt;/b&gt;" style="rounded=1;whiteSpace=wrap;html=1;" vertex="1" parent="1">
          <mxGeometry x="1040" y="207.5" width="60" height="45" as="geometry" />
        </mxCell>
        <mxCell id="cg3MrvOszi7k7yyoZt42-81" style="edgeStyle=orthogonalEdgeStyle;rounded=0;orthogonalLoop=1;jettySize=auto;html=1;" edge="1" parent="1" source="cg3MrvOszi7k7yyoZt42-62">
          <mxGeometry relative="1" as="geometry">
            <mxPoint x="1240" y="230" as="targetPoint" />
          </mxGeometry>
        </mxCell>
        <mxCell id="cg3MrvOszi7k7yyoZt42-62" value="&lt;b&gt;CONV&lt;/b&gt;" style="rounded=1;whiteSpace=wrap;html=1;" vertex="1" parent="1">
          <mxGeometry x="1100" y="207.5" width="60" height="45" as="geometry" />
        </mxCell>
        <mxCell id="cg3MrvOszi7k7yyoZt42-68" style="edgeStyle=orthogonalEdgeStyle;rounded=0;orthogonalLoop=1;jettySize=auto;html=1;entryX=0;entryY=0.5;entryDx=0;entryDy=0;" edge="1" parent="1" source="cg3MrvOszi7k7yyoZt42-13" target="cg3MrvOszi7k7yyoZt42-18">
          <mxGeometry relative="1" as="geometry" />
        </mxCell>
        <mxCell id="cg3MrvOszi7k7yyoZt42-71" value="" style="endArrow=classic;html=1;entryX=0;entryY=0.5;entryDx=0;entryDy=0;exitX=1;exitY=0;exitDx=0;exitDy=0;" edge="1" parent="1" source="cg3MrvOszi7k7yyoZt42-35" target="cg3MrvOszi7k7yyoZt42-61">
          <mxGeometry width="50" height="50" relative="1" as="geometry">
            <mxPoint x="750" y="230" as="sourcePoint" />
            <mxPoint x="630" y="470" as="targetPoint" />
          </mxGeometry>
        </mxCell>
        <mxCell id="cg3MrvOszi7k7yyoZt42-72" value="" style="endArrow=classic;html=1;" edge="1" parent="1">
          <mxGeometry width="50" height="50" relative="1" as="geometry">
            <mxPoint x="870" y="230" as="sourcePoint" />
            <mxPoint x="620" y="320" as="targetPoint" />
            <Array as="points">
              <mxPoint x="870" y="280" />
              <mxPoint x="590" y="280" />
              <mxPoint x="590" y="320" />
            </Array>
          </mxGeometry>
        </mxCell>
        <mxCell id="cg3MrvOszi7k7yyoZt42-73" value="" style="endArrow=classic;html=1;entryX=0.25;entryY=0;entryDx=0;entryDy=0;" edge="1" parent="1" target="cg3MrvOszi7k7yyoZt42-40">
          <mxGeometry width="50" height="50" relative="1" as="geometry">
            <mxPoint x="500" y="230" as="sourcePoint" />
            <mxPoint x="620" y="470" as="targetPoint" />
            <Array as="points">
              <mxPoint x="500" y="370" />
            </Array>
          </mxGeometry>
        </mxCell>
        <mxCell id="cg3MrvOszi7k7yyoZt42-75" value="&lt;b&gt;Y1&lt;/b&gt;" style="shape=cube;whiteSpace=wrap;html=1;boundedLbl=1;backgroundOutline=1;darkOpacity=0.05;darkOpacity2=0.1;direction=south;" vertex="1" parent="1">
          <mxGeometry x="1243" y="190" width="80" height="80" as="geometry" />
        </mxCell>
        <mxCell id="cg3MrvOszi7k7yyoZt42-76" value="&lt;b&gt;Y3&lt;/b&gt;" style="shape=cube;whiteSpace=wrap;html=1;boundedLbl=1;backgroundOutline=1;darkOpacity=0.05;darkOpacity2=0.1;direction=south;" vertex="1" parent="1">
          <mxGeometry x="1243" y="441" width="80" height="80" as="geometry" />
        </mxCell>
        <mxCell id="cg3MrvOszi7k7yyoZt42-77" value="" style="endArrow=classic;html=1;entryX=0.25;entryY=0;entryDx=0;entryDy=0;" edge="1" parent="1" target="cg3MrvOszi7k7yyoZt42-52">
          <mxGeometry width="50" height="50" relative="1" as="geometry">
            <mxPoint x="420" y="230" as="sourcePoint" />
            <mxPoint x="450" y="470" as="targetPoint" />
            <Array as="points">
              <mxPoint x="420" y="504" />
            </Array>
          </mxGeometry>
        </mxCell>
        <mxCell id="cg3MrvOszi7k7yyoZt42-84" value="" style="endArrow=classic;html=1;entryX=0;entryY=0.5;entryDx=0;entryDy=0;" edge="1" parent="1" target="cg3MrvOszi7k7yyoZt42-47">
          <mxGeometry width="50" height="50" relative="1" as="geometry">
            <mxPoint x="1000" y="345" as="sourcePoint" />
            <mxPoint x="940" y="470" as="targetPoint" />
          </mxGeometry>
        </mxCell>
        <mxCell id="cg3MrvOszi7k7yyoZt42-85" value="" style="endArrow=classic;html=1;entryX=0;entryY=0.533;entryDx=0;entryDy=0;entryPerimeter=0;" edge="1" parent="1" target="cg3MrvOszi7k7yyoZt42-50">
          <mxGeometry width="50" height="50" relative="1" as="geometry">
            <mxPoint x="1020" y="350" as="sourcePoint" />
            <mxPoint x="610" y="460" as="targetPoint" />
            <Array as="points">
              <mxPoint x="1020" y="400" />
              <mxPoint x="570" y="400" />
              <mxPoint x="570" y="460" />
            </Array>
          </mxGeometry>
        </mxCell>
        <mxCell id="cg3MrvOszi7k7yyoZt42-86" value="" style="endArrow=classic;html=1;entryX=0;entryY=0.5;entryDx=0;entryDy=0;" edge="1" parent="1" target="cg3MrvOszi7k7yyoZt42-59">
          <mxGeometry width="50" height="50" relative="1" as="geometry">
            <mxPoint x="1000" y="481" as="sourcePoint" />
            <mxPoint x="940" y="470" as="targetPoint" />
          </mxGeometry>
        </mxCell>
      </root>
    </mxGraphModel>
  </diagram>
</mxfile>
